<svg width="834" height="1194" viewBox="0 0 834 1194" fill="none" xmlns="http://www.w3.org/2000/svg">
<rect width="834" height="1194" fill="white"/>
<ellipse cx="427" cy="360" rx="49" ry="48" fill="#EE1414"/>
<path fill-rule="evenodd" clip-rule="evenodd" d="M612 360C612 466.039 524.919 552 417.5 552C310.081 552 223 466.039 223 360C223 279.258 273.488 210.157 345 181.782V352H345.395C345.134 354.632 345 357.3 345 360C345 404.735 381.713 441 427 441C472.287 441 509 404.735 509 360C509 315.265 472.287 279 427 279C408.63 279 391.67 284.967 378 295.046V171.962C390.755 169.365 403.966 168 417.5 168C524.919 168 612 253.961 612 360Z" fill="#EE1414"/>
</svg>
